# Alias OBJ Model File
# Exported from SketchUp, (c) 2000-2012 Trimble Navigation Limited
# File units = meters

mtllib models/item/ice_arrow.mtl

g Mesh1 Model

usemtl FrontColor
v 0.875 0.1875 -0.15625
vt 34.4488 7.38189
vn 0 0 1
v 0.31 0.1875 -0.15625
vt 12.2047 7.38189
v 0.31 0.15625 -0.15625
vt 12.2047 6.15157
v 1 0.15625 -0.15625
vt 39.3701 6.15157
v 1 0.1875 -0.15625
vt 39.3701 7.38189
v 0.96875 0.1875 -0.15625
vt 38.1398 7.38189
f 1/1/1 2/2/1 3/3/1 4/4/1 5/5/1 6/6/1

vn 0 1 -0
v 0.31 0.15625 -0.125
vt 12.2047 4.92126
v 0.875 0.15625 -0.125
vt 34.4488 4.92126
v 0.96875 0.15625 -0.125
vt 38.1398 4.92126
v 1 0.15625 -0.125
vt 39.3701 4.92126
f 4/4/2 3/3/2 7/7/2 8/8/2 9/9/2 10/10/2

v 0.31 0.125 -0.15625
v 0.875 0.125 -0.15625
v 0.96875 0.125 -0.15625
v 1 0.125 -0.15625
f 4/4/1 3/3/1 11/7/1 12/8/1 13/9/1 14/10/1

v 0.875 0.15625 -0.1875
v 0.31 0.15625 -0.1875
v 1 0.15625 -0.1875
v 0.96875 0.15625 -0.1875
f 15/1/2 16/2/2 3/3/2 4/4/2 17/5/2 18/6/2

v 0.875 0.15625 -0.21875
vt 34.4488 8.6122
v 0.96875 0.15625 -0.21875
vt 38.1398 8.6122
v 1 0.15625 -0.21875
vt 39.3701 8.6122
v 1 0.15625 -0.25
vt 39.3701 9.84252
v 0.90625 0.15625 -0.25
vt 35.6791 9.84252
v 0.90625 0.15625 -0.21875
vt 35.6791 8.6122
f 19/11/2 15/1/2 18/6/2 20/12/2 21/13/2 22/14/2 23/15/2 24/16/2

v 0.875 0.09375 -0.15625
vt -34.4488 3.69094
vn 0 0 -1
vt -34.4488 4.92126
vt -38.1398 4.92126
v 0.96875 0.09375 -0.15625
vt -38.1398 3.69094
v 1 0.09375 -0.15625
vt -39.3701 3.69094
v 1 0.0625 -0.15625
vt -39.3701 2.46063
v 0.90625 0.0625 -0.15625
vt -35.6791 2.46063
v 0.90625 0.09375 -0.15625
vt -35.6791 3.69094
f 25/17/3 12/18/3 13/19/3 26/20/3 27/21/3 28/22/3 29/23/3 30/24/3

v 0.875 0.15625 -0.09375
vn 0 -1 -0
v 0.96875 0.15625 -0.09375
v 1 0.15625 -0.09375
v 1 0.15625 -0.0625
v 0.90625 0.15625 -0.0625
v 0.90625 0.15625 -0.09375
f 31/17/4 8/18/4 9/19/4 32/20/4 33/21/4 34/22/4 35/23/4 36/24/4

v 0.875 0.21875 -0.15625
v 0.96875 0.21875 -0.15625
v 1 0.21875 -0.15625
v 1 0.25 -0.15625
v 0.90625 0.25 -0.15625
v 0.90625 0.21875 -0.15625
f 37/11/1 1/1/1 6/6/1 38/12/1 39/13/1 40/14/1 41/15/1 42/16/1

g Mesh2 Model

v 0.31 0.03125 -0.3125
vt -12.2047 1.23031
vn 2.27369e-016 1.61826e-016 -1
v 0.31 0.00125 -0.3125
vt -12.2047 0.0492126
v 0 0.00125 -0.3125
vt 2.79736e-015 0.0492126
v 0 0.31625 -0.3125
vt 2.79736e-015 12.4508
v 0.27 0.31625 -0.3125
vt -10.6299 12.4508
v 0.31 0.31625 -0.3125
vt -12.2047 12.4508
f 43/25/5 44/26/5 45/27/5 46/28/5 47/29/5 48/30/5

vt 12.3031 0.0492126
vn 1 0 -0
vt 12.3031 1.23031
vt 12.3031 12.4508
v 0.31 0.31625 -4.51195e-017
vt 1.77636e-015 12.4508
v 0.31 0.00125 -0
vt 0 0.0492126
f 44/31/6 43/32/6 48/33/6 49/34/6 50/35/6

vt 0 12.3031
v 0 0.31625 -4.51195e-017
vt 0 1.77636e-015
vt 12.2047 1.77636e-015
vt 12.2047 12.3031
vt 10.6299 12.3031
f 46/36/2 51/37/2 49/38/2 48/39/2 47/40/2

vt -1.77636e-015 12.4508
vn -1 3.58091e-017 -3.60956e-017
vt -12.3031 12.4508
vt -12.3031 0.0492126
v -2.25597e-017 0.00125 -0
vt 3.20593e-032 0.0492126
f 51/41/7 46/42/7 45/43/7 52/44/7

vt -12.2047 0
vt 8.88178e-016 0
vt -12.2047 12.3031
f 50/45/4 52/46/4 45/36/4 44/47/4

vt -8.88178e-016 0.0492126
vn 5.29596e-033 1.43236e-016 1
vt 12.2047 0.0492126
vt 12.2047 12.4508
vt 9.40751e-048 12.4508
f 52/48/8 50/49/8 49/50/8 51/51/8

